<svg version="1.0" xmlns="http://www.w3.org/2000/svg" width="150.000000pt" height="150.000000pt" viewBox="0 0 150.000000 150.000000" preserveAspectRatio="xMidYMid meet">
<metadata>
Created by potrace 1.10, written by Peter Selinger 2001-2011
</metadata>
<g transform="translate(0.000000,150.000000) scale(0.100000,-0.100000)" fill="#000000" stroke="none">
<path d="M715 1483 c-44 -22 -114 -92 -136 -135 -24 -47 -81 -190 -77 -194 2 -1 35 7 73 18 93 27 255 28 340 4 33 -10 151 -56 263 -102 201 -84 222 -91 222 -76 0 4 -26 69 -58 145 l-57 139 -55 23 c-284 118 -472 195 -478 195 -4 -1 -20 -8 -37 -17z"/>
<path d="M360 1343 c-74 -31 -138 -61 -142 -67 -4 -6 -34 -76 -67 -156 -33 -80 -80 -194 -105 -255 -26 -60 -46 -115 -46 -121 0 -19 74 -113 110 -139 34 -25 227 -111 234 -104 3 2 -4 36 -15 74 -24 84 -29 234 -10 315 8 30 53 153 102 272 49 120 89 222 89 228 0 15 -3 14 -150 -47z"/>
<path d="M1171 938 c28 -89 35 -226 16 -314 -9 -40 -56 -171 -106 -293 -50 -121 -91 -223 -91 -226 0 -12 32 -1 160 53 l135 58 107 254 c58 140 107 264 107 276 1 29 -52 106 -96 140 -33 25 -222 114 -242 114 -5 0 0 -28 10 -62z"/>
<path d="M100 504 c0 -3 18 -49 41 -102 22 -53 48 -117 59 -142 l18 -45 259 -107 c142 -59 265 -107 274 -108 24 0 102 54 137 95 30 37 112 212 112 240 0 10 -14 8 -62 -8 -48 -15 -91 -20 -178 -21 -135 -1 -162 5 -360 87 -80 33 -176 72 -215 88 -71 29 -85 33 -85 23z"/>
</g>
</svg>