
<svg version="1.0" xmlns="http://www.w3.org/2000/svg" width="150.000000pt" height="150.000000pt" viewBox="0 0 150.000000 150.000000" preserveAspectRatio="xMidYMid meet">
<style>
        @media (prefers-color-scheme: dark) {
            path {
                filter: invert(1);
            }
        }
</style>
<g transform="translate(-7.000000,157.000000) scale(0.11000,-0.110000)" fill="#000000" stroke="none">
<path d="M655 1411 c-3 -6 -24 -20 -46 -32 -22 -11 -44 -30 -48 -42 -8 -19 -10 -20 -16 -5 -3 9 -2 26 5 37 16 30 7 26 -44 -21 -27 -23 -46 -50 -46 -62 0 -17 -2 -18 -10 -6 -6 8 -7 29 -4 45 6 28 4 27 -35 -20 -22 -27 -41 -58 -41 -68 0 -10 -4 -15 -10 -12 -5 3 -10 18 -10 33 0 24 -3 22 -30 -23 -16 -27 -30 -58 -30 -68 0 -10 -4 -15 -10 -12 -6 3 -10 15 -10 26 0 35 -15 20 -33 -35 -9 -29 -14 -61 -11 -70 3 -9 1 -16 -5 -16 -6 0 -13 11 -17 25 -10 42 -21 28 -28 -36 -5 -41 -3 -65 5 -75 7 -9 8 -14 1 -14 -6 0 -20 12 -31 28 l-20 27 -1 -55 c0 -35 6 -64 16 -78 14 -20 14 -22 0 -22 -9 0 -21 9 -28 20 -18 28 -29 25 -18 -6 6 -14 10 -36 10 -49 0 -12 9 -33 20 -46 l20 -24 -15 30 c-8 17 -15 40 -15 51 0 18 5 20 27 16 16 -2 34 -9 41 -15 13 -10 17 -77 5 -78 -5 0 -22 -2 -40 -5 -20 -2 -38 2 -47 11 -23 23 -25 18 -9 -27 19 -55 32 -78 44 -78 5 0 3 10 -5 23 -8 12 -17 31 -20 42 -5 19 -2 20 33 17 29 -3 41 -10 50 -28 26 -57 7 -71 -32 -24 -14 16 -29 30 -33 30 -5 0 6 -15 24 -33 l32 -33 -37 -1 c-21 -1 -44 3 -50 9 -36 30 17 -66 56 -101 l26 -23 -38 5 -37 6 32 -40 c18 -21 43 -42 55 -45 34 -9 28 -27 -7 -22 -16 3 -30 3 -30 1 0 -1 17 -18 37 -38 25 -22 48 -35 66 -35 16 0 26 -4 22 -10 -3 -6 -19 -10 -36 -10 -16 0 -29 -3 -29 -7 1 -11 78 -47 115 -54 l30 -6 -32 -14 -33 -15 50 -18 c28 -10 59 -16 70 -13 29 8 24 -10 -7 -27 -28 -14 -27 -14 29 -21 31 -4 65 -4 77 0 17 5 20 3 14 -11 -4 -12 -3 -15 5 -10 7 4 12 16 12 26 0 36 57 52 85 24 15 -15 14 -18 -7 -41 -20 -21 -30 -24 -70 -20 -26 2 -53 0 -60 -4 -19 -13 100 -11 123 1 25 14 24 2 -2 -26 l-22 -23 39 5 c22 4 56 14 77 24 40 19 45 15 22 -16 -22 -29 -18 -35 13 -20 15 7 40 20 56 27 16 8 32 20 34 28 3 10 -5 7 -23 -7 -36 -29 -52 -28 -58 4 -6 33 23 64 60 64 l27 0 -35 -37 c-33 -35 -23 -37 16 -2 20 17 20 17 23 -18 1 -20 -3 -42 -9 -49 -8 -10 -8 -14 0 -14 6 0 11 4 11 9 0 5 15 15 33 22 17 7 43 25 56 39 l24 25 -6 -33 -7 -33 45 37 c25 20 45 43 45 50 0 8 -15 -3 -34 -23 l-34 -37 -7 43 c-5 33 -3 46 11 62 16 17 44 26 44 14 0 -4 -7 -20 -16 -36 -8 -17 -13 -33 -10 -36 3 -3 13 11 22 30 l17 36 14 -27 c8 -15 12 -37 10 -49 -2 -13 -1 -23 2 -22 14 1 71 91 71 111 0 31 18 10 22 -27 4 -27 5 -28 13 -10 4 11 17 32 27 47 10 14 18 38 18 53 0 23 2 26 15 15 8 -7 15 -22 15 -34 1 -36 33 55 34 97 1 20 2 37 4 37 1 0 11 -14 21 -31 l19 -31 7 65 c4 36 4 70 0 76 -12 21 14 11 29 -11 15 -21 16 -20 16 36 0 41 -5 65 -17 78 -22 25 2 23 27 -2 11 -11 22 -20 24 -20 9 0 -18 107 -31 123 -14 15 -14 17 -1 17 9 0 21 -7 28 -15 7 -9 14 -14 16 -12 9 8 -30 104 -48 120 -20 17 -20 17 0 17 12 0 24 -4 27 -10 3 -5 10 -10 15 -10 10 0 -23 63 -48 93 -8 9 -20 17 -26 17 -6 0 -4 -6 5 -13 16 -12 43 -57 37 -61 -2 -2 -15 -6 -30 -10 -32 -7 -68 21 -68 54 0 27 63 54 91 40 13 -7 19 -7 19 0 0 5 -3 10 -7 10 -5 0 -18 16 -31 34 -24 35 -71 59 -97 50 -18 -7 -52 12 -66 38 -10 19 -9 20 17 14 65 -15 67 -15 29 3 -39 19 -39 20 -11 20 16 1 40 -9 56 -22 23 -20 25 -25 12 -33 -11 -8 -6 -10 21 -10 l36 0 -37 33 c-20 18 -49 36 -64 39 -36 8 -26 24 15 24 l32 0 -27 14 c-15 8 -38 22 -50 30 -12 9 -33 16 -46 16 -13 0 -20 4 -17 10 3 6 17 10 31 10 13 0 24 5 24 10 0 6 -9 10 -20 10 -12 0 -35 7 -52 16 -18 9 -40 13 -56 9 -22 -5 -24 -4 -13 9 8 9 19 16 27 16 7 0 15 4 18 8 6 9 -28 14 -101 16 -48 1 -53 7 -21 28 21 14 19 15 -31 17 -35 1 -62 -4 -77 -14 -29 -19 -32 -3 -4 25 11 11 20 22 20 24 0 6 -85 -16 -112 -29 -33 -16 -38 -2 -10 28 13 15 14 19 2 14 -8 -3 -32 -11 -53 -18 -21 -7 -47 -24 -58 -37 l-19 -25 0 25 c0 13 5 29 12 36 6 6 9 14 6 17 -3 4 -9 1 -13 -4z m95 -55 c0 -37 -12 -51 -51 -61 -53 -13 -49 57 4 80 45 20 47 19 47 -19z m-125 -63 c-32 -28 -52 -29 -60 -3 -8 26 9 56 43 74 26 14 27 13 35 -17 8 -27 5 -35 -18 -54z m229 60 c-12 -49 -39 -67 -79 -53 -18 7 -16 10 18 30 21 12 35 25 32 28 -3 3 -19 -4 -35 -17 -17 -12 -30 -17 -30 -12 0 17 52 51 77 51 20 0 23 -3 17 -27z m103 -32 c-15 -33 -25 -41 -59 -41 -44 0 -42 19 4 39 24 11 37 20 30 20 -7 1 -26 -6 -42 -14 -19 -10 -30 -11 -30 -5 0 16 58 38 85 32 22 -4 23 -6 12 -31z m-412 -42 c-4 -11 -18 -27 -32 -36 -21 -14 -26 -14 -34 -2 -16 26 -9 60 18 85 l27 25 14 -26 c7 -14 10 -35 7 -46z m503 33 c22 -2 22 -3 7 -31 -18 -35 -43 -45 -78 -32 -23 9 -27 23 -17 51 1 3 2 7 2 10 0 5 30 5 86 2z m-603 -42 c17 -32 11 -54 -20 -80 -23 -19 -29 -6 -15 35 7 20 10 39 7 41 -3 3 -15 -24 -26 -59 -12 -36 -31 -73 -43 -83 l-21 -19 6 48 c4 26 3 46 -2 43 -5 -3 -11 -32 -15 -65 -4 -36 -15 -69 -26 -83 l-19 -23 -1 48 c0 28 -5 47 -11 47 -8 0 -9 -14 -5 -42 4 -30 3 -39 -4 -28 -12 18 -13 70 -1 89 7 11 13 10 35 -4 15 -10 26 -13 26 -6 0 6 -4 11 -9 11 -11 0 1 47 20 78 l14 22 22 -28 22 -27 1 31 c0 26 32 84 45 84 3 0 11 -14 20 -30z m331 -2 c5 -7 2 -9 -8 -5 -26 9 -29 -4 -6 -23 12 -9 18 -22 14 -28 -9 -14 -46 -16 -46 -2 0 5 7 7 15 4 8 -4 15 -2 15 4 0 20 -27 20 -44 0 -13 -14 -25 -19 -44 -15 -16 3 -35 -1 -46 -9 -11 -8 -30 -14 -42 -14 -12 0 -27 -7 -34 -15 -7 -8 -20 -15 -29 -15 -10 0 -28 -11 -41 -25 -13 -14 -29 -25 -37 -25 -7 0 -13 -5 -13 -10 0 -6 -14 -24 -30 -42 -17 -17 -30 -37 -30 -44 0 -8 -9 -19 -20 -26 -11 -7 -20 -22 -20 -33 0 -12 -7 -30 -15 -41 -8 -10 -15 -33 -15 -51 0 -17 -5 -35 -10 -38 -7 -4 -7 -12 0 -25 13 -24 13 -43 0 -35 -6 3 -10 -1 -10 -9 0 -9 4 -16 9 -16 5 0 8 -19 7 -42 -1 -24 4 -54 11 -68 7 -14 13 -32 13 -40 0 -8 7 -24 15 -34 8 -11 15 -26 15 -34 0 -8 11 -23 25 -34 14 -11 25 -26 25 -34 0 -8 11 -20 25 -26 13 -6 27 -19 30 -30 4 -10 14 -18 24 -18 10 0 26 -9 36 -20 10 -11 26 -20 35 -20 9 0 25 -7 36 -15 10 -8 33 -15 50 -15 16 0 35 -5 41 -11 8 -8 20 -9 43 -1 41 15 60 6 60 -28 0 -30 -23 -56 -40 -45 -18 11 -11 23 10 18 16 -4 20 0 20 21 0 21 -5 26 -24 26 -35 0 -43 -20 -9 -21 28 0 28 0 4 -10 -16 -6 -28 -6 -37 2 -7 6 -22 8 -34 4 -13 -4 -31 0 -46 10 -14 9 -32 14 -39 11 -8 -3 -24 3 -37 13 -13 10 -35 21 -50 24 -15 4 -30 16 -33 27 -4 11 -15 20 -26 20 -12 0 -27 13 -37 30 -9 17 -25 33 -34 36 -10 3 -21 17 -25 32 -3 15 -15 33 -25 40 -10 7 -18 24 -18 36 0 13 -7 29 -15 36 -8 7 -15 27 -15 46 0 18 -5 36 -10 39 -13 8 -13 55 1 55 5 0 7 -4 4 -10 -3 -5 -1 -18 4 -27 9 -15 10 -13 11 14 0 26 -5 33 -32 43 l-33 12 39 17 c30 13 36 20 26 26 -9 5 -15 4 -18 -3 -2 -7 -8 -12 -13 -12 -5 0 -4 10 3 23 6 12 11 36 9 53 -1 18 2 35 8 39 6 3 11 17 11 31 0 13 9 33 20 44 11 11 20 28 20 38 0 10 11 28 25 40 14 12 25 28 25 37 0 8 10 20 22 26 13 7 31 23 41 36 10 12 27 23 37 23 11 0 24 9 30 20 7 13 21 20 40 20 15 0 30 5 32 11 4 12 72 30 123 32 18 1 33 9 37 20 8 19 33 23 44 5z m69 2 c3 -6 -1 -7 -9 -4 -18 7 -21 14 -7 14 6 0 13 -4 16 -10z m312 -24 c9 -8 -37 -56 -53 -56 -20 0 -64 22 -64 32 0 4 21 8 46 8 30 0 43 4 38 11 -4 7 -20 8 -41 4 -26 -5 -33 -3 -28 6 8 11 89 8 102 -5z m-582 -6 c-3 -5 -14 -10 -23 -10 -15 0 -15 2 -2 10 20 13 33 13 25 0z m229 3 c4 -4 22 -6 41 -5 18 2 36 -1 40 -7 3 -6 19 -11 34 -11 15 0 36 -9 46 -20 10 -11 26 -20 36 -20 10 0 26 -8 36 -18 10 -10 30 -26 46 -35 15 -10 27 -24 27 -32 0 -7 9 -17 20 -20 11 -3 23 -18 27 -33 3 -15 15 -34 26 -43 11 -8 21 -24 22 -35 0 -10 9 -31 19 -46 10 -16 16 -34 13 -43 -4 -8 0 -27 8 -41 8 -15 11 -32 7 -38 -4 -7 -8 -3 -10 9 -2 11 -9 25 -14 30 -7 7 -9 1 -6 -17 3 -16 2 -28 -2 -28 -4 0 -10 17 -13 38 -9 64 -19 96 -38 121 -11 13 -19 30 -19 37 0 7 -12 26 -26 41 -63 69 -100 103 -110 103 -6 0 -19 9 -29 20 -10 11 -28 20 -40 20 -13 0 -28 7 -35 15 -7 8 -27 15 -46 15 -18 0 -35 4 -39 10 -3 5 -13 6 -23 3 -9 -3 -14 -3 -10 2 4 4 3 14 -3 22 -12 13 2 19 15 6z m409 -62 l28 -18 -27 -22 c-32 -25 -42 -26 -72 -5 -36 25 -27 37 24 30 28 -3 43 -2 39 4 -3 6 -23 10 -43 10 -28 0 -33 3 -22 10 22 14 42 12 73 -9z m-457 -17 c-9 -6 -13 -15 -8 -18 5 -3 15 1 22 9 11 14 15 14 37 0 18 -12 28 -13 37 -6 10 8 18 6 31 -9 11 -12 25 -18 36 -15 12 4 22 -1 29 -15 8 -15 18 -20 31 -17 15 4 23 -1 29 -19 6 -14 18 -24 29 -24 12 0 21 -9 25 -24 3 -13 15 -26 26 -29 13 -3 20 -13 20 -30 0 -17 7 -28 20 -32 15 -5 17 -10 10 -30 -7 -19 -5 -26 12 -37 18 -12 19 -17 9 -35 -9 -18 -8 -24 6 -32 15 -8 16 -12 4 -35 -12 -21 -12 -28 -1 -41 10 -13 10 -18 -3 -33 -12 -13 -13 -22 -5 -35 8 -15 6 -22 -11 -33 -17 -12 -19 -19 -11 -35 9 -16 7 -21 -14 -31 -20 -8 -24 -16 -20 -33 4 -18 0 -24 -20 -29 -16 -4 -26 -13 -26 -25 0 -12 -9 -21 -25 -25 -16 -4 -25 -13 -25 -26 0 -15 -7 -20 -29 -20 -20 0 -30 -6 -34 -19 -4 -15 -11 -18 -27 -14 -15 4 -27 0 -36 -11 -10 -14 -16 -16 -34 -6 -18 9 -24 9 -34 -5 -10 -14 -17 -15 -34 -6 -16 9 -26 9 -41 -1 -15 -9 -22 -8 -36 6 -14 14 -20 14 -32 4 -13 -10 -19 -8 -34 11 -14 17 -22 20 -36 12 -14 -7 -20 -5 -30 12 -6 12 -21 22 -35 22 -16 0 -24 7 -26 23 -3 16 -10 22 -28 22 -19 0 -24 5 -24 24 0 18 -6 25 -22 28 -18 2 -22 9 -20 26 3 17 -2 25 -18 29 -18 5 -21 11 -17 32 4 20 0 30 -14 39 -16 10 -18 16 -8 34 9 18 8 24 -6 34 -15 12 -16 15 -2 35 14 19 14 23 1 37 -13 13 -13 16 1 32 13 14 14 23 6 39 -9 17 -8 22 9 31 15 8 19 17 14 35 -4 17 0 26 16 35 15 8 20 18 17 31 -4 14 1 21 19 25 17 4 24 13 24 30 0 19 5 24 24 24 18 0 25 6 28 23 2 17 9 21 29 19 20 -2 28 2 32 19 5 17 11 20 31 15 19 -5 28 -1 36 14 9 17 14 18 31 9 16 -8 25 -7 38 5 10 9 21 13 25 9 4 -4 12 0 17 10 6 9 15 14 21 11 7 -5 5 -11 -6 -20z m-66 8 c0 -13 -12 -22 -22 -16 -10 6 -1 24 13 24 5 0 9 -4 9 -8z m148 -3 c-2 -6 -8 -10 -13 -10 -5 0 -11 4 -13 10 -2 6 4 11 13 11 9 0 15 -5 13 -11z m-418 -12 c0 -2 -10 -12 -21 -23 -22 -19 -22 -19 -10 4 10 18 31 31 31 19z m198 -8 c-2 -6 -8 -10 -13 -10 -5 0 -11 4 -13 10 -2 6 4 11 13 11 9 0 15 -5 13 -11z m292 3 c0 -13 -12 -22 -22 -16 -10 6 -1 24 13 24 5 0 9 -4 9 -8z m-360 -37 c0 -8 -4 -15 -10 -15 -5 0 -10 7 -10 15 0 8 5 15 10 15 6 0 10 -7 10 -15z m421 2 c-1 -12 -15 -9 -19 4 -3 6 1 10 8 8 6 -3 11 -8 11 -12z m193 -36 c-2 -3 -12 3 -22 13 -16 17 -16 18 5 5 12 -7 20 -15 17 -18z m-674 -6 c0 -8 -4 -15 -10 -15 -5 0 -10 7 -10 15 0 8 5 15 10 15 6 0 10 -7 10 -15z m547 -11 c-9 -9 -28 6 -21 18 4 6 10 6 17 -1 6 -6 8 -13 4 -17z m-780 -51 c7 -17 -15 -68 -25 -58 -4 3 -12 23 -18 43 -7 20 -12 29 -13 20 -1 -9 3 -28 9 -42 12 -33 5 -33 -15 -2 -11 17 -14 35 -10 60 l7 36 30 -21 c16 -12 32 -28 35 -36z m183 6 c0 -5 -7 -9 -15 -9 -15 0 -20 12 -9 23 8 8 24 -1 24 -14z m647 -5 c-9 -9 -28 6 -21 18 4 6 10 6 17 -1 6 -6 8 -13 4 -17z m133 12 c0 -3 -4 -8 -10 -11 -5 -3 -10 -1 -10 4 0 6 5 11 10 11 6 0 10 -2 10 -4z m107 -22 l27 -27 -28 -14 c-15 -8 -35 -12 -45 -8 -22 7 -46 49 -37 64 13 20 56 12 83 -15z m-927 -45 c0 -5 -7 -9 -15 -9 -15 0 -20 12 -9 23 8 8 24 -1 24 -14z m730 1 c0 -5 -4 -10 -10 -10 -5 0 -10 5 -10 10 0 6 5 10 10 10 6 0 10 -4 10 -10z m-922 -22 c13 -11 16 -46 5 -74 -5 -13 -11 -7 -30 27 -13 25 -21 33 -17 19 3 -14 10 -29 15 -34 16 -17 10 -29 -7 -15 -22 18 -34 52 -27 78 4 17 10 20 27 15 11 -4 27 -11 34 -16z m1036 6 c3 -8 2 -12 -4 -9 -6 3 -10 10 -10 16 0 14 7 11 14 -7z m-882 -49 c0 -5 -5 -11 -11 -13 -6 -2 -11 4 -11 13 0 9 5 15 11 13 6 -2 11 -8 11 -13z m798 0 c0 -8 -4 -15 -10 -15 -5 0 -10 7 -10 15 0 8 5 15 10 15 6 0 10 -7 10 -15z m120 -46 c0 -5 -4 -9 -8 -9 -5 0 -9 7 -9 15 0 8 4 12 9 9 4 -3 8 -9 8 -15z m-939 -32 c-13 -13 -26 -3 -16 12 3 6 11 8 17 5 6 -4 6 -10 -1 -17z m835 -4 c-10 -10 -19 5 -10 18 6 11 8 11 12 0 2 -7 1 -15 -2 -18z m194 -38 c0 5 -12 22 -27 37 -19 20 -22 28 -11 28 20 0 45 -29 53 -62 7 -26 5 -28 -21 -28 -38 0 -64 27 -64 64 l1 31 34 -39 c19 -22 35 -35 35 -31z m-90 -11 c0 -8 -6 -11 -15 -8 -10 4 -15 0 -15 -11 0 -11 5 -15 15 -11 8 3 15 0 15 -7 0 -7 -16 -12 -40 -12 -25 -1 -40 4 -40 11 0 7 8 10 20 7 14 -4 20 0 20 12 0 12 -6 16 -20 12 -12 -3 -20 0 -20 7 0 6 17 12 40 12 27 1 40 -3 40 -12z m-940 -12 c0 -13 -12 -22 -22 -16 -10 6 -1 24 13 24 5 0 9 -4 9 -8z m850 0 c0 -13 -12 -22 -22 -16 -10 6 -1 24 13 24 5 0 9 -4 9 -8z m146 -47 c10 -19 22 -35 27 -35 5 0 -1 16 -13 35 -17 28 -18 34 -6 29 21 -8 36 -36 36 -67 0 -21 -4 -24 -27 -19 -35 6 -53 28 -53 64 0 38 13 35 36 -7z m-89 -34 c1 -20 -6 -44 -14 -53 -9 -10 -13 -24 -10 -32 3 -8 -3 -26 -14 -39 -10 -14 -19 -32 -19 -41 0 -9 -10 -26 -22 -38 -13 -13 -28 -32 -33 -43 -6 -11 -20 -24 -31 -29 -11 -5 -25 -19 -30 -30 -5 -12 -19 -22 -30 -24 -12 -2 -32 -14 -45 -28 -12 -13 -32 -24 -45 -24 -12 0 -27 -7 -35 -16 -8 -9 -21 -13 -35 -10 -12 3 -34 -1 -50 -9 -15 -7 -32 -11 -38 -7 -7 4 -3 8 9 10 11 2 25 9 30 14 7 7 1 9 -17 6 -16 -3 -28 -2 -28 2 0 4 17 10 38 13 78 12 108 20 131 38 13 11 28 19 33 19 18 0 128 107 146 141 6 13 16 31 20 39 26 46 42 83 42 98 0 27 22 79 34 79 7 0 13 -16 13 -36z m-905 4 c0 -5 -5 -11 -11 -13 -6 -2 -11 4 -11 13 0 9 5 15 11 13 6 -2 11 -8 11 -13z m838 0 c0 -8 -4 -15 -10 -15 -5 0 -10 7 -10 15 0 8 5 15 10 15 6 0 10 -7 10 -15z m-973 -47 c6 -7 14 -23 17 -35 8 -25 -20 -39 -54 -28 -16 5 -50 51 -50 68 0 10 79 6 87 -5z m1137 -10 c9 -12 16 -37 16 -55 0 -31 -1 -32 -30 -21 -36 12 -54 41 -46 74 8 31 40 32 60 2z m-982 -13 c0 -5 -5 -11 -11 -13 -6 -2 -11 4 -11 13 0 9 5 15 11 13 6 -2 11 -8 11 -13z m794 -12 c-10 -10 -19 5 -10 18 6 11 8 11 12 0 2 -7 1 -15 -2 -18z m101 -5 c-3 -8 -6 -5 -6 6 -1 11 2 17 5 13 3 -3 4 -12 1 -19z m-987 -39 c0 -6 -4 -7 -10 -4 -5 3 -10 11 -10 16 0 6 5 7 10 4 6 -3 10 -11 10 -16z m122 -14 c0 -5 -5 -11 -11 -13 -6 -2 -11 4 -11 13 0 9 5 15 11 13 6 -2 11 -8 11 -13z m738 0 c0 -8 -4 -15 -10 -15 -5 0 -10 7 -10 15 0 8 5 15 10 15 6 0 10 -7 10 -15z m172 -2 c18 -16 24 -57 12 -87 -5 -14 -10 -13 -35 5 -28 20 -36 48 -23 83 8 20 23 20 46 -1z m-1047 -23 c18 -34 9 -38 -36 -14 -17 8 -33 13 -35 11 -3 -2 12 -12 31 -22 41 -19 41 -29 1 -19 -14 3 -36 18 -47 32 -19 25 -19 27 -2 33 42 17 72 10 88 -21z m182 -46 c-9 -9 -28 6 -21 18 4 6 10 6 17 -1 6 -6 8 -13 4 -17z m653 11 c0 -8 -4 -15 -9 -15 -13 0 -22 16 -14 24 11 11 23 6 23 -9z m151 -68 l8 -42 -3 47 c-4 51 8 56 19 9 4 -18 1 -40 -7 -56 l-14 -26 -28 26 c-28 26 -29 51 -3 83 14 17 19 9 28 -41z m-935 18 c8 -13 13 -29 9 -35 -11 -18 -68 -11 -92 12 -21 20 -21 22 -5 34 28 22 70 17 88 -11z m181 -11 c-9 -9 -28 6 -21 18 4 6 10 6 17 -1 6 -6 8 -13 4 -17z m553 5 c0 -5 -7 -9 -15 -9 -15 0 -20 12 -9 23 8 8 24 -1 24 -14z m-490 -39 c0 -5 -4 -10 -10 -10 -5 0 -10 5 -10 10 0 6 5 10 10 10 6 0 10 -4 10 -10z m430 0 c0 -5 -7 -10 -15 -10 -8 0 -15 5 -15 10 0 6 7 10 15 10 8 0 15 -4 15 -10z m218 -38 c2 -19 -4 -44 -13 -58 l-16 -25 -20 25 c-23 30 -24 54 -2 78 25 28 47 19 51 -20z m-823 8 c37 -41 -25 -66 -86 -34 l-30 15 23 19 c30 25 70 25 93 0z m245 0 c0 -5 -7 -10 -15 -10 -8 0 -15 5 -15 10 0 6 7 10 15 10 8 0 15 -4 15 -10z m290 2 c0 -13 -12 -22 -22 -16 -10 6 -1 24 13 24 5 0 9 -4 9 -8z m-475 -22 c3 -6 -1 -7 -9 -4 -18 7 -21 14 -7 14 6 0 13 -4 16 -10z m255 0 c0 -5 -7 -10 -15 -10 -8 0 -15 5 -15 10 0 6 7 10 15 10 8 0 15 -4 15 -10z m71 -13 c-13 -13 -26 -3 -16 12 3 6 11 8 17 5 6 -4 6 -10 -1 -17z m79 13 c0 -5 -7 -10 -15 -10 -8 0 -15 5 -15 10 0 6 7 10 15 10 8 0 15 -4 15 -10z m257 -37 c-3 -16 -9 -37 -13 -48 -5 -16 -4 -18 6 -8 7 6 16 26 20 45 l8 33 1 -36 c1 -23 -7 -46 -20 -63 l-21 -27 -14 27 c-20 37 -17 60 8 84 28 26 32 25 25 -7z m-653 -2 l30 -20 -27 -6 c-15 -4 -36 -5 -47 -2 -11 3 -20 1 -20 -5 0 -6 17 -8 41 -6 35 3 38 2 23 -9 -22 -16 -32 -16 -73 -2 l-32 11 27 29 c33 34 40 35 78 10z m589 4 c-3 -9 -8 -14 -10 -11 -3 3 -2 9 2 15 9 16 15 13 8 -4z m-83 -40 c0 -8 -4 -15 -8 -15 -5 0 -9 7 -9 15 0 8 4 15 9 15 4 0 8 -7 8 -15z m-416 -11 c24 -9 19 -43 -8 -55 -14 -7 -40 -9 -61 -5 l-36 7 21 30 c21 28 49 36 84 23z m336 -8 c0 -3 -4 -8 -10 -11 -5 -3 -10 -1 -10 4 0 6 5 11 10 11 6 0 10 -2 10 -4z m-187 -13 c-7 -2 -19 -2 -25 0 -7 3 -2 5 12 5 14 0 19 -2 13 -5z m252 -22 c8 -27 -3 -48 -39 -69 l-33 -19 -1 35 c-2 57 57 101 73 53z m-192 -16 c9 -22 -24 -55 -64 -64 l-36 -8 8 35 c4 19 14 39 21 43 21 14 65 10 71 -6z"/>
<path d="M690 1345 c-13 -14 -21 -27 -18 -30 2 -3 17 9 33 25 16 17 24 30 19 30 -6 0 -21 -11 -34 -25z"/>
<path d="M587 1324 c-11 -14 -17 -27 -15 -30 3 -2 14 10 27 26 12 17 18 30 14 30 -4 0 -16 -12 -26 -26z"/>
<path d="M494 1295 c-9 -13 -14 -29 -12 -35 2 -7 11 5 21 24 19 41 15 47 -9 11z"/>
<path d="M980 1290 c-13 -9 -13 -10 0 -9 8 1 26 5 40 9 l25 8 -25 1 c-14 0 -32 -4 -40 -9z"/>
<path d="M675 1230 c-18 -8 -17 -9 8 -9 16 -1 26 3 22 9 -3 6 -7 10 -8 9 -1 0 -11 -4 -22 -9z"/>
<path d="M590 1210 c-12 -8 -11 -10 7 -10 12 0 25 5 28 10 8 13 -15 13 -35 0z"/>
<path d="M520 1180 c-8 -5 -12 -11 -9 -14 3 -3 14 1 25 9 21 16 8 20 -16 5z"/>
<path d="M454 1136 c-10 -8 -16 -17 -13 -20 3 -3 14 3 24 14 21 23 17 26 -11 6z"/>
<path d="M386 1074 c-9 -24 -7 -28 9 -14 17 14 20 30 6 30 -5 0 -12 -7 -15 -16z"/>
<path d="M340 1016 c-6 -9 -10 -21 -8 -28 3 -8 9 -4 17 10 15 28 9 39 -9 18z"/>
<path d="M304 944 c-4 -10 -9 -22 -11 -26 -2 -5 0 -8 6 -8 11 0 26 39 17 47 -3 3 -9 -3 -12 -13z"/>
<path d="M277 867 c-11 -29 -9 -43 4 -30 6 6 9 19 7 29 -3 18 -4 18 -11 1z"/>
<path d="M280 618 c0 -7 5 -20 10 -28 8 -12 10 -11 10 7 0 12 -4 25 -10 28 -5 3 -10 0 -10 -7z"/>
<path d="M310 539 c0 -9 7 -22 15 -29 19 -16 19 0 0 26 -12 16 -14 16 -15 3z"/>
<path d="M350 472 c0 -5 10 -17 21 -28 22 -19 22 -19 10 3 -12 24 -31 39 -31 25z"/>
<path d="M410 400 c0 -5 9 -14 20 -20 16 -8 18 -8 14 4 -6 17 -34 30 -34 16z"/>
<path d="M482 344 c10 -10 20 -15 24 -12 3 4 -5 12 -18 18 -22 12 -22 12 -6 -6z"/>
<path d="M555 300 c3 -5 13 -10 21 -10 8 0 12 5 9 10 -3 6 -13 10 -21 10 -8 0 -12 -4 -9 -10z"/>
<path d="M625 280 c3 -5 16 -10 28 -10 18 0 19 2 7 10 -20 13 -43 13 -35 0z"/>
<path d="M835 1220 c3 -5 15 -10 26 -10 11 0 17 5 14 10 -3 6 -15 10 -26 10 -11 0 -17 -4 -14 -10z"/>
<path d="M924 1195 c11 -8 25 -15 30 -15 6 0 2 7 -8 15 -11 8 -25 15 -30 15 -6 0 -2 -7 8 -15z"/>
<path d="M1004 1155 c11 -8 22 -12 25 -9 6 6 -19 24 -34 24 -5 -1 -1 -7 9 -15z"/>
<path d="M1060 1111 c0 -5 7 -12 16 -15 24 -9 28 -7 14 9 -14 17 -30 20 -30 6z"/>
<path d="M1120 1052 c0 -5 7 -15 15 -22 8 -7 15 -8 15 -2 0 5 -7 15 -15 22 -8 7 -15 8 -15 2z"/>
<path d="M1170 983 c0 -4 5 -15 10 -23 8 -13 10 -13 10 2 0 9 -4 20 -10 23 -5 3 -10 3 -10 -2z"/>
<path d="M1200 908 c0 -7 5 -20 10 -28 8 -12 10 -11 10 7 0 12 -4 25 -10 28 -5 3 -10 0 -10 -7z"/>
<path d="M704 1133 c-10 -15 -15 -16 -33 -5 -18 10 -23 9 -33 -8 -9 -13 -19 -18 -34 -14 -16 4 -24 0 -28 -14 -5 -14 -13 -18 -31 -14 -20 3 -25 0 -25 -16 0 -13 -9 -22 -25 -26 -16 -4 -25 -13 -25 -25 0 -12 -10 -21 -26 -25 -19 -5 -24 -11 -19 -26 4 -13 -1 -22 -15 -30 -14 -8 -19 -17 -15 -30 4 -13 -1 -23 -14 -32 -16 -9 -17 -16 -9 -31 7 -14 6 -23 -5 -35 -12 -12 -13 -19 -4 -33 9 -15 9 -23 0 -38 -9 -14 -8 -21 4 -33 12 -12 13 -20 4 -36 -9 -17 -8 -22 9 -27 15 -5 18 -12 14 -34 -5 -23 -2 -29 14 -33 15 -4 19 -11 15 -27 -4 -17 0 -24 16 -28 12 -3 24 -16 27 -29 4 -14 14 -24 24 -24 10 0 22 -9 25 -20 4 -13 15 -20 30 -20 15 0 26 -7 30 -20 5 -16 10 -18 25 -10 15 8 22 6 34 -12 13 -18 18 -19 31 -8 13 11 19 10 35 -5 16 -15 22 -15 35 -5 12 10 18 10 30 0 13 -10 19 -10 33 3 13 12 22 13 36 5 15 -9 22 -7 32 7 9 11 21 16 35 12 15 -4 23 0 26 14 4 13 14 19 34 19 22 0 29 5 29 20 0 15 7 20 25 20 20 0 25 5 25 25 0 19 5 25 21 25 17 0 20 5 17 24 -4 18 1 27 19 35 19 9 22 15 15 28 -7 12 -4 21 11 34 18 14 19 19 9 32 -10 12 -10 18 3 31 13 12 13 19 3 35 -9 15 -9 23 1 35 12 14 11 19 -2 34 -12 13 -13 22 -5 35 7 14 6 21 -8 31 -11 8 -15 21 -12 34 4 15 0 23 -13 27 -11 4 -19 16 -19 30 0 14 -7 25 -20 28 -12 3 -20 14 -20 26 0 14 -6 21 -20 21 -13 0 -24 10 -30 26 -8 19 -15 24 -29 19 -14 -4 -21 0 -26 15 -5 17 -12 20 -31 16 -17 -5 -26 -1 -34 14 -9 17 -14 18 -30 8 -15 -10 -22 -9 -38 5 -17 16 -20 16 -32 2 -12 -14 -15 -14 -30 0 -21 19 -23 19 -36 -2z m41 -23 c5 -8 11 -8 20 0 7 6 20 8 28 4 13 -5 -5 -30 -78 -112 -51 -59 -92 -109 -90 -111 3 -2 27 6 54 18 46 19 130 30 105 13 -26 -18 -204 -222 -204 -234 0 -7 17 7 38 31 l38 45 27 -20 c14 -10 26 -21 27 -24 0 -3 -29 -41 -65 -85 -67 -84 -89 -128 -30 -61 19 22 37 37 38 35 19 -22 147 -214 147 -219 0 -10 -99 -10 -105 0 -3 5 -14 6 -24 3 -10 -3 -22 0 -25 6 -4 6 -18 11 -32 11 -14 0 -27 7 -30 15 -4 8 -14 15 -25 15 -10 0 -23 9 -29 20 -6 11 -17 20 -25 20 -7 0 -16 9 -20 19 -3 11 -12 21 -19 24 -16 7 -58 85 -51 97 3 4 0 10 -6 12 -7 2 -13 17 -15 33 -11 101 -12 125 -3 131 5 3 7 15 4 25 -4 11 -1 27 6 35 7 9 14 25 14 37 1 11 7 23 13 25 7 2 12 10 12 18 0 18 106 124 124 124 8 0 16 5 18 12 2 6 13 12 24 13 10 1 29 7 41 13 12 7 28 9 36 6 8 -3 18 -1 22 5 8 14 32 14 40 1z m115 -15 c7 -8 16 -12 20 -10 12 7 91 -35 97 -51 3 -8 12 -14 19 -14 8 0 18 -8 21 -17 4 -10 15 -24 25 -31 10 -7 18 -21 18 -31 0 -11 7 -21 15 -25 8 -3 15 -16 15 -30 0 -14 5 -28 11 -32 6 -3 9 -15 6 -25 -3 -10 -2 -21 3 -24 10 -6 10 -104 -1 -110 -4 -3 -5 -13 -2 -21 5 -14 -5 -45 -28 -84 -5 -8 -13 -25 -19 -38 -5 -12 -17 -25 -25 -28 -8 -4 -15 -12 -15 -18 0 -16 -76 -73 -120 -91 -8 -4 -23 -11 -32 -16 -10 -5 -23 -9 -30 -9 -19 0 -93 112 -89 135 4 30 17 38 40 25 12 -6 27 -9 34 -7 7 3 -25 22 -70 43 -45 22 -82 42 -83 47 0 6 127 165 164 205 10 10 23 8 69 -13 31 -13 57 -21 57 -15 0 10 -83 50 -111 53 -9 1 -40 -27 -71 -65 l-55 -66 -27 21 -27 22 76 82 c41 45 75 84 75 87 0 11 -75 5 -113 -9 l-39 -13 19 21 c11 12 47 55 82 95 35 39 67 72 71 72 4 0 13 -7 20 -15z m-120 -542 c0 -33 -11 -28 -43 17 l-29 40 36 -17 c26 -12 36 -23 36 -40z"/>
<path d="M1270 1010 c33 -23 50 -30 50 -22 0 5 -11 14 -25 20 -32 15 -45 15 -25 2z"/>
<path d="M1218 650 c-7 -24 -3 -38 8 -28 3 4 4 17 2 30 l-3 23 -7 -25z"/>
<path d="M1197 584 c-4 -4 -7 -17 -7 -28 1 -19 1 -20 11 -3 11 19 8 43 -4 31z"/>
<path d="M1150 491 c-7 -15 -7 -21 0 -21 12 0 25 28 17 36 -3 3 -10 -4 -17 -15z"/>
<path d="M1100 425 c-20 -24 -6 -28 15 -5 10 11 13 20 8 20 -6 0 -16 -7 -23 -15z"/>
<path d="M1040 370 c-8 -5 -11 -12 -7 -16 4 -4 15 0 24 9 18 18 8 23 -17 7z"/>
<path d="M974 325 c-10 -8 -14 -15 -8 -15 6 0 17 7 24 15 16 19 9 19 -16 0z"/>
<path d="M885 290 c-3 -5 1 -10 9 -10 8 0 18 5 21 10 3 6 -1 10 -9 10 -8 0 -18 -4 -21 -10z"/>
<path d="M150 611 c0 -11 48 -47 54 -40 2 2 -10 14 -25 27 -16 13 -29 19 -29 13z"/>
<path d="M1323 595 c6 -19 14 -35 18 -35 9 0 -9 58 -21 65 -4 3 -3 -11 3 -30z"/>
<path d="M1283 520 c4 -14 7 -33 7 -43 0 -10 4 -16 9 -12 6 3 6 18 1 36 -11 38 -26 55 -17 19z"/>
<path d="M236 410 c5 -5 25 -12 44 -15 l35 -5 -35 14 c-42 18 -58 20 -44 6z"/>
<path d="M1168 331 c-2 -23 -1 -41 3 -41 10 0 18 64 9 73 -4 5 -9 -10 -12 -32z"/>
<path d="M300 329 c0 -10 54 -19 63 -9 5 4 -7 10 -27 12 -20 2 -36 1 -36 -3z"/>
<path d="M498 213 c-16 -2 -28 -8 -28 -12 0 -10 59 -1 66 10 3 5 2 8 -3 8 -4 -1 -20 -4 -35 -6z"/>
<path d="M900 168 l-23 -33 28 27 c16 15 26 30 23 33 -3 4 -16 -9 -28 -27z"/>
<path d="M701 159 c-18 -11 -31 -23 -28 -26 6 -5 67 34 67 43 0 6 -3 5 -39 -17z"/>
<path d="M1320 904 c17 -15 33 -24 36 -21 6 6 -45 47 -58 47 -5 0 5 -12 22 -26z"/>
<path d="M140 820 c0 -15 39 -72 40 -58 0 4 -9 22 -20 40 -11 18 -20 26 -20 18z"/>
<path d="M598 177 c-16 -6 -28 -14 -28 -19 0 -8 48 10 65 24 12 11 -3 9 -37 -5z"/>
</g>
</svg>