<svg version="1.0" xmlns="http://www.w3.org/2000/svg" width="900.000000pt" height="900.000000pt" viewBox="0 0 900.000000 900.000000" preserveAspectRatio="xMidYMid meet">
<metadata>
Created by potrace 1.10, written by Peter Selinger 2001-2011
</metadata>
<g transform="translate(0.000000,900.000000) scale(0.100000,-0.100000)" fill="#000000" stroke="none">
<path d="M4440 8986 c0 -8 -10 -17 -22 -21 -117 -32 -330 -177 -459 -311 -62 -65 -177 -212 -192 -244 -4 -8 -17 -31 -28 -50 -75 -125 -120 -245 -166 -440 -17 -71 -18 -193 -18 -2077 l0 -2002 21 -28 c27 -37 91 -73 130 -73 35 0 105 46 126 82 11 19 14 404 18 2013 5 1902 6 1993 24 2060 10 39 25 85 32 103 8 18 14 40 14 50 0 9 7 26 15 36 8 11 15 26 15 33 0 18 82 154 137 226 26 34 72 87 103 118 57 57 203 169 219 169 5 0 14 7 21 15 23 27 75 29 122 4 70 -38 188 -132 259 -206 144 -149 226 -289 285 -488 36 -121 37 -173 39 -2135 1 -1064 5 -1951 10 -1970 12 -56 82 -110 140 -110 32 0 82 25 115 58 l25 24 3 1962 c2 1956 1 2076 -32 2211 -29 119 -100 292 -156 380 -11 17 -23 37 -27 45 -17 38 -128 173 -204 249 -73 73 -192 170 -254 208 -50 30 -153 80 -177 86 -16 4 -28 14 -28 22 0 11 -13 15 -55 15 -41 0 -55 -4 -55 -14z"/>
<path d="M3715 8915 c-27 -8 -64 -14 -82 -15 -17 0 -44 -5 -60 -11 -15 -6 -50 -15 -78 -19 -78 -13 -283 -69 -385 -105 -19 -7 -51 -18 -70 -24 -19 -7 -48 -16 -65 -21 -68 -19 -230 -86 -410 -170 -44 -21 -87 -40 -95 -44 -8 -3 -42 -21 -75 -39 -33 -19 -82 -46 -110 -61 -27 -15 -63 -36 -80 -47 -16 -10 -39 -23 -50 -29 -85 -45 -459 -307 -485 -340 -3 -3 -28 -24 -55 -46 -81 -63 -130 -109 -315 -294 -178 -177 -265 -276 -381 -430 -35 -47 -66 -87 -69 -90 -6 -6 -38 -51 -95 -135 -49 -71 -182 -288 -196 -319 -5 -11 -25 -48 -44 -81 -49 -88 -130 -259 -183 -385 -8 -19 -21 -48 -28 -63 -8 -16 -14 -36 -14 -46 0 -9 -5 -22 -11 -28 -6 -6 -14 -26 -19 -44 -5 -19 -18 -59 -29 -89 -12 -30 -26 -71 -30 -90 -5 -19 -14 -48 -19 -65 -23 -65 -65 -226 -85 -320 -82 -382 -92 -491 -92 -975 0 -427 14 -619 61 -817 8 -34 14 -71 14 -84 0 -12 6 -45 14 -73 13 -47 26 -99 47 -186 4 -19 15 -60 25 -90 9 -30 22 -75 29 -100 36 -122 118 -336 192 -500 55 -122 162 -330 204 -395 10 -16 23 -39 28 -50 5 -11 21 -37 35 -58 14 -21 26 -40 26 -42 0 -2 21 -34 47 -72 26 -37 60 -88 77 -113 34 -51 147 -202 156 -210 4 -3 26 -30 49 -60 24 -30 78 -93 121 -140 42 -47 89 -100 104 -117 23 -27 140 -137 321 -302 22 -21 68 -59 103 -86 35 -28 85 -67 110 -88 67 -53 366 -253 452 -301 19 -11 53 -30 75 -42 52 -30 326 -165 390 -193 28 -12 64 -28 80 -35 17 -8 48 -20 70 -29 22 -8 59 -22 83 -31 44 -17 94 -35 152 -56 19 -6 51 -16 70 -20 19 -4 49 -13 65 -18 192 -66 574 -142 835 -165 151 -13 714 -16 860 -4 158 13 398 49 520 79 25 6 63 14 85 18 38 7 64 13 183 46 128 35 169 47 200 60 18 8 39 14 47 14 8 0 29 6 47 14 18 8 51 21 73 29 51 19 191 75 230 92 49 22 357 175 400 199 22 12 56 31 75 42 86 48 385 248 452 301 25 21 75 60 110 88 69 54 81 65 281 250 75 70 143 135 150 145 6 9 49 57 93 106 45 49 101 114 125 144 23 30 45 57 49 60 9 8 122 159 156 210 17 25 51 76 77 113 26 38 47 70 47 72 0 2 12 21 26 42 14 21 30 47 35 58 5 11 18 34 28 50 82 127 242 466 316 665 52 141 64 176 75 215 5 17 18 62 30 100 12 39 25 86 29 105 5 19 14 58 21 85 44 183 59 254 70 345 5 36 13 85 19 110 6 25 11 72 11 105 2 87 14 150 28 147 9 -1 12 83 12 359 0 309 -2 363 -15 373 -10 8 -16 38 -20 101 -5 83 -19 175 -47 330 -6 33 -14 80 -18 105 -7 45 -20 98 -46 198 -31 117 -46 168 -56 197 -5 17 -14 46 -19 65 -4 19 -18 60 -30 90 -11 30 -24 70 -29 89 -5 18 -13 38 -19 44 -6 6 -11 19 -11 28 0 10 -6 30 -14 46 -7 15 -21 45 -30 66 -8 20 -22 52 -30 70 -22 51 -174 358 -200 402 -12 22 -31 56 -42 75 -50 88 -220 344 -252 378 -6 8 -26 34 -44 60 -18 26 -40 56 -49 67 -9 11 -52 63 -95 115 -117 142 -444 467 -569 564 -27 22 -52 43 -55 46 -20 25 -392 290 -440 313 -8 4 -28 16 -45 27 -16 11 -39 24 -50 30 -11 6 -47 26 -80 45 -105 61 -387 198 -495 240 -25 9 -53 21 -62 26 -22 11 -94 38 -133 49 -16 5 -61 19 -100 33 -102 35 -237 75 -330 97 -136 33 -175 41 -235 50 -36 5 -81 14 -100 20 -41 12 -120 13 -120 2 0 -4 35 -44 78 -87 130 -135 228 -270 311 -433 22 -44 53 -72 78 -72 14 0 34 -5 46 -12 12 -6 38 -15 57 -19 19 -4 60 -17 90 -29 30 -12 69 -25 85 -30 17 -4 44 -13 60 -20 17 -7 45 -19 63 -26 17 -8 47 -20 65 -28 95 -40 282 -131 372 -181 33 -19 69 -39 80 -45 11 -6 34 -19 50 -30 17 -11 37 -23 45 -27 51 -24 350 -237 420 -299 14 -12 63 -55 110 -95 309 -268 611 -634 819 -994 28 -49 56 -97 61 -105 39 -65 179 -365 200 -430 5 -14 18 -50 30 -80 12 -30 36 -102 55 -160 19 -58 41 -126 50 -151 8 -26 15 -54 15 -64 0 -10 6 -38 14 -64 27 -85 53 -223 92 -491 14 -90 17 -188 18 -455 0 -334 -2 -367 -40 -620 -3 -21 -19 -42 -54 -70 -27 -22 -68 -66 -91 -98 -24 -32 -52 -59 -63 -61 -12 -2 -64 -9 -116 -16 -146 -18 -256 -60 -364 -139 -54 -40 -125 -115 -149 -158 -55 -98 -82 -169 -99 -263 -17 -96 -15 -177 6 -268 9 -40 14 -77 11 -83 -4 -5 -30 -9 -58 -9 -65 0 -202 -23 -242 -40 -75 -31 -104 -48 -157 -88 -117 -87 -209 -245 -243 -415 -5 -26 -8 -27 -43 -20 -20 4 -84 7 -142 6 -87 0 -114 -5 -155 -23 -117 -54 -209 -197 -225 -349 l-5 -55 -102 3 c-97 2 -147 -6 -248 -41 -66 -23 -83 -22 -112 9 -55 59 -162 129 -243 161 -59 23 -212 51 -275 51 -57 0 -231 -29 -252 -42 -15 -10 -53 36 -82 100 -5 11 -15 24 -20 28 -7 4 -11 87 -11 243 0 142 -5 253 -11 277 -7 25 -27 54 -52 77 -35 33 -47 38 -88 38 -53 0 -96 -21 -128 -62 -18 -22 -21 -43 -23 -174 l-3 -149 -103 0 c-57 0 -108 2 -113 5 -4 3 -10 161 -11 350 l-3 345 -24 32 c-34 45 -107 69 -158 53 -52 -17 -79 -44 -97 -98 -13 -38 -16 -110 -16 -443 l0 -397 -27 -31 c-21 -24 -36 -31 -63 -31 -66 0 -172 -37 -245 -85 -72 -48 -157 -145 -200 -228 -11 -21 -23 -41 -27 -43 -4 -2 -26 8 -50 24 -76 49 -133 62 -267 62 -79 0 -133 -5 -154 -13 -18 -8 -49 -17 -70 -21 -31 -6 -38 -4 -43 11 -40 126 -94 223 -161 291 -35 34 -69 62 -76 62 -7 0 -18 5 -24 11 -31 31 -118 49 -230 49 -111 0 -156 -9 -224 -46 -31 -16 -39 -11 -39 30 -1 40 -35 201 -52 246 -83 213 -290 339 -560 340 -59 0 -109 4 -112 8 -3 5 4 50 14 102 31 146 22 286 -25 395 -7 17 -16 37 -19 45 -34 80 -161 221 -240 267 -46 26 -167 83 -178 83 -6 0 -34 7 -62 15 -28 8 -63 17 -78 20 -23 4 -29 12 -34 43 -15 96 -141 214 -242 227 -63 8 -63 9 -83 140 -20 142 -18 726 5 880 35 249 61 388 91 500 7 28 21 79 31 115 21 79 75 245 104 320 12 30 25 66 30 80 21 65 161 365 200 430 5 8 33 56 61 105 298 516 742 987 1244 1321 50 33 97 63 105 67 8 4 29 16 45 27 17 11 39 24 50 30 11 6 47 26 80 45 90 50 277 141 373 181 17 8 47 20 65 28 17 7 49 21 70 30 21 9 44 16 52 16 7 0 26 6 42 14 15 8 55 22 88 31 33 10 75 24 93 31 18 8 43 14 56 14 35 0 61 27 100 102 76 147 154 252 294 398 45 48 82 89 82 93 0 12 -103 6 -155 -8z"/>
<path d="M4185 8033 c-36 -9 -83 -63 -94 -109 -15 -61 -13 -736 2 -788 7 -24 26 -50 49 -69 31 -25 45 -30 92 -29 40 0 62 6 85 23 62 46 62 47 59 494 l-3 405 -35 35 c-29 29 -45 36 -85 40 -28 2 -59 1 -70 -2z"/>
<path d="M4695 7671 c-11 -5 -35 -24 -53 -42 l-32 -33 0 -751 0 -752 35 -36 c73 -76 193 -59 242 33 17 33 18 79 21 733 2 479 -1 711 -8 738 -6 22 -26 56 -43 75 -27 30 -40 36 -87 39 -30 3 -64 1 -75 -4z"/>
<path d="M4192 6890 c-47 -11 -88 -54 -101 -105 -16 -63 -15 -1133 1 -1189 14 -51 32 -73 80 -97 65 -33 131 -16 180 46 l23 29 3 604 c2 543 1 606 -14 638 -29 61 -99 91 -172 74z"/>
<path d="M4678 5852 c-14 -9 -36 -29 -47 -44 -21 -26 -21 -30 -21 -958 0 -833 2 -935 16 -958 28 -47 62 -65 124 -66 74 -1 117 30 143 100 16 45 17 115 17 919 0 604 -3 882 -11 910 -7 24 -27 55 -51 78 -35 33 -44 37 -91 37 -33 0 -62 -7 -79 -18z"/>
<path d="M3091 5516 c-19 -7 -49 -29 -65 -50 l-31 -38 -2 -781 -3 -782 23 -40 c25 -44 87 -85 131 -85 39 0 97 34 124 74 l22 32 0 788 c0 872 4 817 -65 864 -41 29 -90 35 -134 18z"/>
<path d="M5795 5518 c-40 -14 -63 -36 -86 -80 -18 -36 -19 -71 -19 -805 l0 -768 23 -40 c25 -45 87 -85 132 -85 38 0 100 37 125 76 19 28 20 54 20 819 0 735 -1 792 -18 816 -26 40 -44 54 -81 67 -40 14 -56 14 -96 0z"/>
<path d="M4165 5333 c-34 -18 -55 -44 -72 -88 -16 -42 -18 -1786 -2 -1851 8 -31 22 -54 48 -74 31 -26 44 -30 97 -30 56 0 64 3 97 35 21 20 39 49 42 68 3 17 5 447 3 954 l-3 921 -25 27 c-52 56 -125 71 -185 38z"/>
<path d="M2535 4588 c-46 -16 -80 -53 -93 -103 -8 -32 -12 -168 -12 -468 0 -442 4 -480 45 -524 27 -27 79 -53 107 -53 36 1 94 32 120 65 l23 30 0 487 c0 478 0 487 -21 515 -37 50 -111 72 -169 51z"/>
<path d="M6351 4586 c-19 -7 -47 -27 -63 -46 l-28 -34 0 -484 0 -483 23 -30 c31 -43 92 -72 135 -66 42 7 96 48 120 90 15 29 17 75 20 466 3 382 1 441 -13 485 -19 58 -46 88 -94 104 -41 14 -56 14 -100 -2z"/>
<path d="M4649 3641 l-39 -39 0 -318 c1 -314 1 -319 23 -346 12 -15 44 -37 71 -48 46 -21 50 -21 92 -5 51 19 89 61 104 113 5 21 10 147 10 292 0 235 -2 259 -21 300 -31 69 -62 89 -138 90 -61 0 -65 -2 -102 -39z"/>
</g>
</svg>