<svg version="1.0" xmlns="http://www.w3.org/2000/svg" width="300.000000pt" height="300.000000pt" viewBox="0 0 300.000000 300.000000" preserveAspectRatio="xMidYMid meet">
<metadata>
Created by potrace 1.10, written by Peter Selinger 2001-2011
</metadata>
<g transform="translate(0.000000,300.000000) scale(0.100000,-0.100000)" fill="#000000" stroke="none">
<path d="M1330 2935 c-8 -2 -49 -9 -90 -15 -104 -17 -296 -82 -413 -141 -141 -70 -238 -140 -352 -254 -194 -193 -317 -423 -386 -720 -32 -141 -37 -404 -11 -560 65 -379 251 -693 539 -909 101 -75 248 -155 261 -141 9 9 603 1280 625 1337 11 26 13 26 126 33 233 13 438 52 652 122 180 58 176 55 154 124 -22 66 -62 149 -73 149 -5 0 -46 -13 -93 -29 -485 -164 -1052 -159 -1551 13 l-97 34 -35 -82 c-57 -133 -57 -129 11 -155 189 -74 394 -130 558 -152 50 -7 91 -13 93 -15 3 -2 -466 -1013 -474 -1023 -12 -14 -170 139 -243 235 -72 94 -155 268 -187 389 -36 137 -44 360 -19 502 85 475 416 853 846 968 246 66 497 55 737 -30 384 -138 681 -507 757 -942 19 -109 19 -296 0 -405 -38 -222 -156 -447 -312 -600 l-48 -48 -195 418 c-195 416 -196 417 -225 415 -105 -5 -196 -18 -204 -27 -20 -25 -611 -1301 -607 -1312 5 -12 210 -58 229 -51 12 5 39 59 332 692 87 187 161 343 164 347 3 4 96 -187 206 -423 110 -237 203 -433 208 -436 16 -10 187 116 284 210 214 207 356 470 420 777 26 121 25 421 -1 540 -64 295 -189 532 -386 729 -204 205 -447 338 -740 408 -84 20 -138 25 -275 28 -93 2 -177 2 -185 0z"/>
</g>
</svg>